# xmcd CD database file generated by Grip 3.0.6
# 
# Track frame offsets:
#       150
#       13787
#       32970
#       52050
#       66470
#       91337
#       108047
#       125042
#       143387
#       160505
#       178462
# 
# Disc length: 2673 seconds
# 
# Revision: 0
# Processed by: cddbd v1.4PL0 Copyright (c) Steve Scherf et al.
# Submitted via: Grip 3.0.6
# 
DISCID=970a6f0b
DTITLE=Sue Medley - Sue Medley
DYEAR=1990
DGENRE=Pop
TTITLE0=That's Life
TTITLE1=Heart of Mine
TTITLE2=Dangerous Times
TTITLE3=Blue Skies
TTITLE4=Queen of the Underground
TTITLE5=Oh, Atlanta
TTITLE6=Love Thing
TTITLE7=Start it Over
TTITLE8=57 Chevy
TTITLE9=Blue Train
TTITLE10=Maybe the Next Time
EXTD=
EXTT0=
EXTT1=
EXTT2=
EXTT3=
EXTT4=
EXTT5=
EXTT6=
EXTT7=
EXTT8=
EXTT9=
EXTT10=
PLAYORDER=
